<svg width="102" height="102" viewBox="0 0 102 102" fill="none" xmlns="http://www.w3.org/2000/svg">
<rect x="18.8945" y="19.0769" width="64.6006" height="60.3081" rx="2.47273" fill="url(#paint0_linear_6_4275)"/>
<rect opacity="0.2" x="24.5039" y="26.2234" width="30.1734" height="3.6695" rx="1.83475" fill="#E3E6E9"/>
<rect opacity="0.2" x="24.5039" y="61.3005" width="30.1734" height="3.6695" rx="1.83475" fill="#E3E6E9"/>
<rect opacity="0.2" width="30.1734" height="3.6695" rx="1.83475" transform="matrix(-1 0 0 1 74.5293 32.4238)" fill="#E3E6E9"/>
<rect opacity="0.2" width="30.1734" height="3.6695" rx="1.83475" transform="matrix(-1 0 0 1 74.5293 73.655)" fill="#E3E6E9"/>
<rect opacity="0.2" x="58.6836" y="26.2234" width="15.8485" height="3.6695" rx="1.83475" fill="#E3E6E9"/>
<rect opacity="0.2" x="58.6836" y="61.3005" width="15.8485" height="3.6695" rx="1.83475" fill="#E3E6E9"/>
<rect opacity="0.2" width="15.8485" height="3.6695" rx="1.83475" transform="matrix(-1 0 0 1 40.3535 32.4236)" fill="#E3E6E9"/>
<rect opacity="0.2" width="15.8485" height="3.6695" rx="1.83475" transform="matrix(-1 0 0 1 40.3535 73.655)" fill="#E3E6E9"/>
<path fill-rule="evenodd" clip-rule="evenodd" d="M75.0179 59.4104H71.1893H71.1845C70.74 59.4104 70.501 58.8529 70.7973 58.5063C73.4549 55.3975 74.7263 52.0275 74.7263 48.4315C74.7263 44.8355 73.5457 41.3952 70.869 38.3014C70.5679 37.9498 70.8069 37.3923 71.2562 37.3923H75.0848C75.3429 37.3923 75.5819 37.5229 75.73 37.7439C76.4279 38.8137 77.011 39.9336 77.4794 41.0938C78.4402 43.4744 78.8799 46.0308 78.8799 48.4265C78.8799 50.8221 78.4354 53.1826 77.5368 55.4427C77.0397 56.6983 76.4136 57.9036 75.6583 59.0588C75.515 59.2798 75.2712 59.4104 75.0179 59.4104ZM31.1937 59.5463H27.3699C27.1165 59.5463 26.8728 59.4158 26.7294 59.1948C25.9742 58.0396 25.348 56.8343 24.8509 55.5787C23.9523 53.3186 23.5078 50.9631 23.5078 48.5624C23.5078 46.1618 23.9476 43.6104 24.9083 41.2298C25.3767 40.0696 25.9598 38.9496 26.6577 37.8799C26.8011 37.6589 27.0448 37.5283 27.2982 37.5283H31.1268C31.5761 37.5283 31.815 38.0858 31.5139 38.4374C28.8372 41.5311 27.6566 44.9715 27.6566 48.5675C27.6566 52.1635 28.9281 55.5335 31.5856 58.6423C31.882 58.9889 31.643 59.5463 31.1985 59.5463H31.1937ZM51.0507 45.8956C50.3959 41.3353 47.0596 38.5227 42.0648 38.5227C36.2574 38.5227 32.6773 42.7717 32.6773 48.3867C32.6773 54.0017 36.2574 58.2807 42.0648 58.2807C47.0644 58.2807 50.3959 55.4632 51.0507 50.8778C51.0746 50.712 50.9503 50.5664 50.7926 50.5664H47.1552C47.0309 50.5664 46.9258 50.6618 46.9019 50.7874C46.4143 53.178 44.5359 54.4637 42.1173 54.4637C38.9245 54.4637 36.8261 52.3393 36.8261 48.3867C36.8261 44.4341 38.9292 42.3347 42.1173 42.3347C44.5359 42.3347 46.4143 43.5953 46.9019 45.986C46.9306 46.1115 47.0309 46.207 47.1552 46.207H50.7926C50.9503 46.207 51.0746 46.0613 51.0507 45.8956ZM57.3172 50.948C57.3125 50.7973 57.2025 50.6768 57.0591 50.6768L57.0544 50.6868H53.4265C53.2784 50.6868 53.1636 50.8174 53.1636 50.9681C53.2879 56.5228 57.0783 58.2907 61.6955 58.2907C66.0786 58.2907 69.5534 56.5981 69.5534 52.8113C69.5534 49.4061 67.2974 48.9943 64.9649 48.6678V47.578C67.2974 47.1712 69.2953 46.6237 69.2953 43.7359C69.2953 40.2202 66.2984 38.5327 61.6955 38.5327C57.0926 38.5327 53.5604 41.0138 53.4265 45.79C53.4265 45.9457 53.546 46.0713 53.6894 46.0713H57.3172C57.4559 46.0713 57.5706 45.9558 57.5754 45.8051C57.6471 43.7409 58.5887 42.3497 61.6955 42.3497C64.3674 42.3497 65.1465 43.0327 65.1465 44.2833C65.1465 45.5339 64.4487 46.2169 62.8905 46.2169H60.6057C60.4623 46.2169 60.3476 46.3375 60.3476 46.4881V49.7577C60.3476 49.9084 60.4623 50.0289 60.6057 50.0289H62.8905C64.4439 50.0289 65.4046 50.7119 65.4046 52.2638C65.4046 53.8158 64.3674 54.4687 61.6955 54.4687C58.5552 54.4687 57.3842 53.7505 57.3172 50.948Z" fill="white"/>
<rect x="26.7715" y="-0.000244141" width="48.8446" height="5.67492" fill="#1B1B1B"/>
<rect x="26.7715" y="5.35229" width="48.8446" height="0.323429" fill="#111111"/>
<rect x="102" y="29.3159" width="48.8561" height="5.67358" transform="rotate(90 102 29.3159)" fill="#1B1B1B"/>
<rect x="96.6504" y="29.3159" width="48.8561" height="0.323429" transform="rotate(90 96.6504 29.3159)" fill="#111111"/>
<rect width="48.8561" height="5.67358" transform="matrix(4.39098e-08 1 1 -4.35139e-08 0 29.3159)" fill="#1B1B1B"/>
<rect width="48.8561" height="0.323429" transform="matrix(4.37011e-08 1 1 -4.37217e-08 5.34961 29.3159)" fill="#111111"/>
<rect x="26.7715" y="96.324" width="48.8446" height="5.67492" fill="#111111"/>
<rect x="26.7715" y="101.675" width="48.8446" height="0.323429" fill="#1B1B1B"/>
<path fill-rule="evenodd" clip-rule="evenodd" d="M37.4554 3.59351L36.2145 4.40703C35.533 3.95478 34.7155 3.69134 33.8364 3.69134H23.9925C12.7794 3.69134 3.68945 12.7835 3.68945 23.9992V33.8454C3.68945 34.7901 3.99348 35.6638 4.50901 36.3739L4.14258 37.5212L7.01954 38.0419C7.33333 38.1147 7.66025 38.1531 7.99616 38.1531C10.3747 38.1531 12.3029 36.2245 12.3029 33.8454V23.9992C12.3029 17.5416 17.5365 12.3068 23.9925 12.3068H33.8364C36.2149 12.3068 38.1431 10.3781 38.1431 7.99906C38.1431 7.68754 38.1101 7.38374 38.0473 7.09099L37.4554 3.59351Z" fill="#6B4800"/>
<path fill-rule="evenodd" clip-rule="evenodd" d="M22.1488 8.6152C14.6734 8.6152 8.61342 14.6766 8.61342 22.1538V33.2308C8.61342 35.6099 6.68524 37.5385 4.30671 37.5385C1.92818 37.5385 0 35.6099 0 33.2308V22.1538C0 9.91844 9.91635 -0.000244141 22.1488 -0.000244141H33.2232C35.6017 -0.000244141 37.5299 1.92839 37.5299 4.30748C37.5299 6.68657 35.6017 8.6152 33.2232 8.6152H22.1488Z" fill="#F0A200"/>
<path fill-rule="evenodd" clip-rule="evenodd" d="M64.5426 98.405L65.7827 97.5921C66.4643 98.0447 67.2822 98.3083 68.1616 98.3083L78.0055 98.3083C89.2186 98.3083 98.3086 89.2162 98.3086 78.0005L98.3086 68.1543C98.3086 67.2097 98.0046 66.3361 97.4892 65.626L97.8555 64.4793L94.9937 63.9614C94.6753 63.8863 94.3432 63.8466 94.0019 63.8466C91.6234 63.8466 89.6952 65.7752 89.6952 68.1543L89.6952 78.0005C89.6952 84.458 84.4615 89.6929 78.0055 89.6929L68.1616 89.6929C65.7831 89.6929 63.8549 91.6215 63.8549 94.0006C63.8549 94.3136 63.8883 94.6189 63.9517 94.9129L64.5426 98.405Z" fill="#6B4800"/>
<path fill-rule="evenodd" clip-rule="evenodd" d="M79.8512 93.3843C87.3266 93.3843 93.3866 87.3229 93.3866 79.8458L93.3866 68.7687C93.3866 66.3897 95.3148 64.461 97.6933 64.461C100.072 64.461 102 66.3897 102 68.7687L102 79.8458C102 92.0811 92.0837 102 79.8512 102L68.7768 102C66.3983 102 64.4701 100.071 64.4701 97.692C64.4701 95.3129 66.3983 93.3843 68.7768 93.3843L79.8512 93.3843Z" fill="#F0A200"/>
<path fill-rule="evenodd" clip-rule="evenodd" d="M98.4062 37.4698L97.5911 36.2258C98.0433 35.5442 98.3066 34.7265 98.3066 33.8472L98.3066 24.001C98.3066 12.7852 89.2167 3.69311 78.0036 3.69311L68.1597 3.69311C67.2151 3.69311 66.3416 3.99727 65.6316 4.51301L64.4869 4.14722L63.9736 6.98422C63.8948 7.31019 63.853 7.65063 63.853 8.00084C63.853 10.3799 65.7812 12.3086 68.1597 12.3086L78.0036 12.3086C84.4596 12.3086 89.6932 17.5434 89.6932 24.001L89.6932 33.8472C89.6932 36.2263 91.6214 38.1549 93.9999 38.1549C94.2801 38.1549 94.554 38.1282 94.8192 38.0771L98.4062 37.4698Z" fill="#6B4800"/>
<path fill-rule="evenodd" clip-rule="evenodd" d="M93.3866 22.1538C93.3866 14.6766 87.3266 8.6152 79.8512 8.6152L68.7768 8.6152C66.3983 8.6152 64.4701 6.68657 64.4701 4.30748C64.4701 1.92839 66.3983 -0.000245704 68.7768 -0.0002456L79.8512 -0.000245113C92.0837 -0.000244576 102 9.91844 102 22.1538L102 33.2308C102 35.6099 100.072 37.5385 97.6933 37.5385C95.3148 37.5385 93.3866 35.6099 93.3866 33.2308L93.3866 22.1538Z" fill="#F0A200"/>
<path fill-rule="evenodd" clip-rule="evenodd" d="M3.5918 64.5328L4.40568 65.7749C3.95321 66.4566 3.68964 67.2747 3.68964 68.1543L3.68963 78.0005C3.68963 89.2162 12.7796 98.3084 23.9927 98.3084L33.8366 98.3084C34.7814 98.3084 35.6552 98.004 36.3652 97.4881L37.5112 97.8542L38.0301 94.9861C38.1041 94.6696 38.1433 94.3397 38.1433 94.0006C38.1433 91.6215 36.2151 89.6929 33.8366 89.6929L23.9927 89.6929C17.5367 89.6929 12.303 84.458 12.3031 78.0005L12.3031 68.1543C12.3031 65.7752 10.3749 63.8466 7.99634 63.8466C7.69898 63.8466 7.40865 63.8767 7.12825 63.9341L3.5918 64.5328Z" fill="#6B4800"/>
<path fill-rule="evenodd" clip-rule="evenodd" d="M8.61342 79.8458C8.61342 87.3229 14.6734 93.3843 22.1488 93.3843L33.2232 93.3843C35.6017 93.3843 37.5299 95.3129 37.5299 97.692C37.5299 100.071 35.6017 102 33.2232 102L22.1488 102C9.91635 102 1.30658e-06 92.0811 2.91833e-06 79.8458L4.3775e-06 68.7687C4.69089e-06 66.3897 1.92818 64.461 4.30671 64.461C6.68524 64.461 8.61342 66.3897 8.61342 68.7687L8.61342 79.8458Z" fill="#F0A200"/>
<rect x="18.8945" y="38.1541" width="64.5562" height="30.865" fill="url(#paint1_linear_6_4275)" fill-opacity="0.6"/>
<g filter="url(#filter0_i_6_4275)">
<rect x="18.0234" y="66.5574" width="66.4464" height="4.92311" rx="2.46156" fill="#3E246B"/>
</g>
<defs>
<filter id="filter0_i_6_4275" x="18.0234" y="64.0846" width="66.4463" height="7.39582" filterUnits="userSpaceOnUse" color-interpolation-filters="sRGB">
<feFlood flood-opacity="0" result="BackgroundImageFix"/>
<feBlend mode="normal" in="SourceGraphic" in2="BackgroundImageFix" result="shape"/>
<feColorMatrix in="SourceAlpha" type="matrix" values="0 0 0 0 0 0 0 0 0 0 0 0 0 0 0 0 0 0 127 0" result="hardAlpha"/>
<feOffset dy="-2.47273"/>
<feGaussianBlur stdDeviation="1.23636"/>
<feComposite in2="hardAlpha" operator="arithmetic" k2="-1" k3="1"/>
<feColorMatrix type="matrix" values="0 0 0 0 0.29624 0 0 0 0 0.151215 0 0 0 0 0.541667 0 0 0 1 0"/>
<feBlend mode="normal" in2="shape" result="effect1_innerShadow_6_4275"/>
</filter>
<linearGradient id="paint0_linear_6_4275" x1="47.3187" y1="79.385" x2="47.3187" y2="19.0769" gradientUnits="userSpaceOnUse">
<stop/>
<stop offset="1" stop-color="#575757" stop-opacity="0"/>
</linearGradient>
<linearGradient id="paint1_linear_6_4275" x1="51.1726" y1="38.1541" x2="51.1726" y2="69.0191" gradientUnits="userSpaceOnUse">
<stop stop-color="#D9D9D9" stop-opacity="0"/>
<stop offset="1" stop-color="#53308A"/>
</linearGradient>
</defs>
</svg>
