<svg width="214" height="36" viewBox="0 0 214 36" fill="none" xmlns="http://www.w3.org/2000/svg">
<path fill-rule="evenodd" clip-rule="evenodd" d="M83.9475 35.779H77.7079H77.7001C76.9757 35.779 76.5862 34.8731 77.0692 34.31C81.4003 29.2582 83.4724 23.7819 83.4724 17.9385C83.4724 12.095 81.5483 6.50453 77.186 1.47719C76.6952 0.905901 77.0847 0 77.817 0H84.0566C84.4772 0 84.8667 0.212193 85.1082 0.571289C86.2455 2.30964 87.1959 4.1296 87.9593 6.01486C89.525 9.8833 90.2417 14.0374 90.2417 17.9303C90.2417 21.8232 89.5172 25.659 88.0528 29.3316C87.2426 31.3719 86.2222 33.3306 84.9914 35.2077C84.7577 35.5668 84.3604 35.779 83.9475 35.779ZM12.526 35.9997H6.29415C5.88129 35.9997 5.48401 35.7875 5.25032 35.4284C4.01953 33.5513 2.99907 31.5926 2.18893 29.5523C0.72445 25.8797 0 22.0521 0 18.151C0 14.2499 0.716661 10.104 2.28241 6.23556C3.04581 4.35031 3.99616 2.53034 5.13347 0.791992C5.36716 0.432896 5.76444 0.220703 6.1773 0.220703H12.4169C13.1492 0.220703 13.5387 1.1266 13.0479 1.69789C8.68561 6.72524 6.76154 12.3157 6.76154 18.1592C6.76154 24.0027 8.83362 29.4789 13.1647 34.5307C13.6477 35.0938 13.2582 35.9997 12.5338 35.9997H12.526ZM44.8873 13.8167C43.8201 6.40625 38.3828 1.83594 30.2425 1.83594C20.7779 1.83594 14.9434 8.74038 14.9434 17.8647C14.9434 26.989 20.7779 33.9424 30.2425 33.9424C38.3906 33.9424 43.8201 29.3639 44.8873 21.9127C44.9263 21.6434 44.7237 21.4067 44.4667 21.4067H38.5386C38.3361 21.4067 38.1647 21.5617 38.1258 21.7658C37.3312 25.6505 34.2698 27.7398 30.3282 27.7398C25.1246 27.7398 21.7049 24.2876 21.7049 17.8647C21.7049 11.4418 25.1324 8.03035 30.3282 8.03035C34.2698 8.03035 37.3312 10.0788 38.1258 13.9636C38.1725 14.1676 38.3361 14.3227 38.5386 14.3227H44.4667C44.7237 14.3227 44.9263 14.086 44.8873 13.8167ZM55.1014 22.0282C55.0936 21.7833 54.9144 21.5875 54.6807 21.5875L54.6729 21.6038H48.7605C48.519 21.6038 48.332 21.816 48.332 22.0608C48.5346 31.0872 54.7119 33.96 62.2368 33.96C69.38 33.96 75.0432 31.2096 75.0432 25.056C75.0432 19.5227 71.3664 18.8535 67.565 18.323V16.552C71.3664 15.8909 74.6226 15.0013 74.6226 10.3086C74.6226 4.5957 69.7384 1.85352 62.2368 1.85352C54.7352 1.85352 48.9786 5.88518 48.7605 13.6466C48.7605 13.8996 48.9552 14.1036 49.1889 14.1036H55.1014C55.3273 14.1036 55.5142 13.9159 55.522 13.671C55.6389 10.3168 57.1734 8.05608 62.2368 8.05608C66.5913 8.05608 67.861 9.16602 67.861 11.1982C67.861 13.2303 66.7237 14.3403 64.1842 14.3403H60.4607C60.227 14.3403 60.0401 14.5361 60.0401 14.781V20.094C60.0401 20.3388 60.227 20.5347 60.4607 20.5347H64.1842C66.7159 20.5347 68.2817 21.6446 68.2817 24.1664C68.2817 26.6883 66.5913 27.7492 62.2368 27.7492C57.1189 27.7492 55.2104 26.5822 55.1014 22.0282ZM189.263 33.9851V2.00977H193.27L209.991 26.9905V2.00977H213.999V33.9851H209.991L193.27 8.98216V33.9851H189.263ZM169.916 2.00977L159.184 33.9851H163.303L165.813 26.502H179.517L182.05 33.9851H186.169L175.437 2.00977H169.916ZM178.262 22.7937L172.635 6.16908L167.057 22.7937H178.262ZM144.171 34.6533C140.98 34.6533 138.271 33.9502 136.044 32.5438C133.818 31.1375 132.118 29.1835 130.946 26.6817C129.788 24.1799 129.209 21.2859 129.209 17.9995C129.209 14.7132 129.788 11.8191 130.946 9.31733C132.118 6.81555 133.818 4.86151 136.044 3.45518C138.271 2.04886 140.98 1.3457 144.171 1.3457C147.882 1.3457 150.932 2.28572 153.322 4.16575C155.726 6.04578 157.381 8.57716 158.287 11.7599L154.257 12.8257C153.604 10.4424 152.439 8.56235 150.761 7.18564C149.084 5.80892 146.887 5.12057 144.171 5.12057C141.781 5.12057 139.792 5.66089 138.204 6.74154C136.616 7.82218 135.421 9.33213 134.619 11.2714C133.818 13.1958 133.41 15.4385 133.395 17.9995C133.38 20.5457 133.773 22.7884 134.575 24.7277C135.376 26.6521 136.579 28.162 138.182 29.2575C139.785 30.3381 141.781 30.8785 144.171 30.8785C146.887 30.8785 149.084 30.1901 150.761 28.8134C152.439 27.4219 153.604 25.5418 154.257 23.1733L158.287 24.2391C157.381 27.4071 155.726 29.9384 153.322 31.8333C150.932 33.7133 147.882 34.6533 144.171 34.6533ZM109.064 33.4984C110.89 34.2682 112.938 34.6531 115.209 34.6531C116.872 34.6531 118.43 34.4384 119.885 34.0091C121.34 33.5946 122.616 32.9877 123.714 32.1883C124.813 31.3741 125.666 30.3675 126.275 29.1684C126.898 27.9693 127.21 26.6 127.21 25.0605C127.21 23.5209 126.928 22.2478 126.364 21.2412C125.8 20.2198 125.087 19.4056 124.227 18.7986C123.366 18.1769 122.475 17.6958 121.555 17.3553C120.649 17.0148 119.848 16.7484 119.15 16.5559L113.05 14.8017C112.263 14.5797 111.454 14.2984 110.623 13.9579C109.806 13.6026 109.116 13.1289 108.552 12.5368C107.988 11.9299 107.706 11.1379 107.706 10.1609C107.706 9.16903 108.018 8.29562 108.641 7.54065C109.265 6.77088 110.103 6.17134 111.157 5.74204C112.211 5.31274 113.391 5.10549 114.697 5.1203C116.063 5.1351 117.317 5.40156 118.46 5.91968C119.603 6.423 120.553 7.14836 121.31 8.09578C122.082 9.02839 122.579 10.1461 122.802 11.4487L127.01 10.716C126.624 8.77674 125.867 7.11136 124.739 5.71984C123.625 4.32832 122.215 3.26247 120.508 2.52231C118.816 1.76733 116.894 1.38244 114.742 1.36764C112.619 1.35284 110.712 1.70072 109.02 2.41128C107.328 3.12184 105.984 4.15068 104.99 5.49779C104.01 6.83009 103.52 8.44366 103.52 10.3385C103.52 11.5228 103.713 12.5516 104.099 13.425C104.485 14.2836 105.005 15.0238 105.658 15.6455C106.311 16.2524 107.053 16.7632 107.884 17.1777C108.715 17.5773 109.576 17.9104 110.467 18.1769L118.638 20.5972C119.217 20.7601 119.774 20.9673 120.308 21.219C120.842 21.4706 121.317 21.7815 121.733 22.1516C122.163 22.5069 122.497 22.9436 122.735 23.4617C122.987 23.965 123.113 24.572 123.113 25.2825C123.113 26.4372 122.772 27.4364 122.089 28.2802C121.406 29.124 120.479 29.7753 119.306 30.2342C118.148 30.6783 116.85 30.9004 115.41 30.9004C113.183 30.9004 111.246 30.3379 109.599 29.2128C107.966 28.0729 106.89 26.4964 106.37 24.4831L102.273 25.1271C102.63 27.0811 103.394 28.7761 104.567 30.212C105.754 31.6332 107.253 32.7286 109.064 33.4984Z" fill="white"/>
</svg>


