<svg width="24" height="24" viewBox="0 0 32 32" fill="none" xmlns="http://www.w3.org/2000/svg">
<path fill-rule="evenodd" clip-rule="evenodd" d="M16 32C7.2 32 0 24.8002 0 15.9203C0.08 7.12051 7.2 -0.0793381 16.08 0.000660272C24.88 0.0806586 32 7.20051 32 16.1603C31.92 24.8802 24.8 32 16 32" fill="black"/>
<path d="M10.7654 24L13.0794 19.9929L15.3933 16L17.6931 11.9929L18.0741 11.358L18.2434 11.9929L18.9489 14.6314L18.1587 16L15.8448 19.9929L13.545 24H16.3104L18.6243 19.9929L19.8236 17.9189L20.388 19.9929L21.4603 24H23.9436L22.8713 19.9929L21.7989 16L21.5168 14.97L23.2381 11.9929H20.7266L20.642 11.6966L19.7672 8.42328L19.6543 8H17.2416L17.1852 8.08466L14.9277 11.9929L12.6138 16L10.3139 19.9929L8 24H10.7654Z" fill="white"/>
</svg>
