<svg width="24" height="24" viewBox="0 0 24 24" fill="none" xmlns="http://www.w3.org/2000/svg">
<g clip-path="url(#clip0_6_6483)">
<path d="M19.4004 4.11719H4.58203V17.5853H19.4004V4.11719Z" fill="white"/>
<path fill-rule="evenodd" clip-rule="evenodd" d="M23.9958 11.9997C23.9958 18.6183 18.6268 23.9837 12.0037 23.9837C5.38072 23.9837 0.0117188 18.6183 0.0117188 11.9997C0.0117188 5.38106 5.38072 0.015625 12.0037 0.015625C18.6268 0.015625 23.9958 5.38106 23.9958 11.9997ZM8.60554 16.7687H6.27823C5.78919 16.7687 5.54762 16.7687 5.40033 16.6746C5.24124 16.5715 5.14403 16.4007 5.13225 16.2123C5.1234 16.0387 5.2442 15.8266 5.48576 15.4027L11.2322 5.28054C11.4767 4.85071 11.6004 4.6358 11.7566 4.55632C11.9245 4.47094 12.1248 4.47094 12.2927 4.55632C12.4489 4.6358 12.5726 4.85071 12.8171 5.28054L13.9985 7.34135L14.0045 7.35187C14.2686 7.81299 14.4025 8.04683 14.461 8.29226C14.5258 8.56017 14.5258 8.84279 14.461 9.1107C14.4021 9.35799 14.2695 9.59352 14.0014 10.0616L10.9829 15.3938L10.9751 15.4075C10.7093 15.8724 10.5746 16.1081 10.3879 16.2858C10.1846 16.4802 9.94007 16.6214 9.67198 16.701C9.42746 16.7687 9.1535 16.7687 8.60554 16.7687ZM14.4828 16.7687H17.8175C18.3095 16.7687 18.557 16.7687 18.7044 16.6717C18.8635 16.5686 18.9636 16.3948 18.9725 16.2065C18.981 16.0385 18.8628 15.8347 18.6313 15.4354C18.6233 15.4218 18.6153 15.408 18.6072 15.3939L16.9368 12.5382L16.9177 12.5061C16.683 12.1094 16.5645 11.9091 16.4124 11.8317C16.2445 11.7463 16.047 11.7463 15.8792 11.8317C15.726 11.9111 15.6023 12.1202 15.3577 12.5412L13.6933 15.3969L13.6876 15.4067C13.4439 15.827 13.3221 16.0371 13.3309 16.2094C13.3427 16.3979 13.4399 16.5715 13.599 16.6746C13.7433 16.7687 13.9908 16.7687 14.4828 16.7687Z" fill="#E84142"/>
</g>
<defs>
<clipPath id="clip0_6_6483">
<rect width="24" height="24" fill="white"/>
</clipPath>
</defs>
</svg>
