<svg width="16" height="16" viewBox="0 0 16 16" fill="none" xmlns="http://www.w3.org/2000/svg">
<path fill-rule="evenodd" clip-rule="evenodd" d="M8.20711 1.29289C8.59763 1.68342 8.59763 2.31658 8.20711 2.70711L2.91421 8L8.20711 13.2929C8.59763 13.6834 8.59763 14.3166 8.20711 14.7071C7.81658 15.0976 7.18342 15.0976 6.79289 14.7071L0.792892 8.70711C0.605356 8.51957 0.499999 8.26522 0.499999 8C0.499999 7.73478 0.605356 7.48043 0.792892 7.29289L6.79289 1.29289C7.18342 0.902369 7.81658 0.902369 8.20711 1.29289Z" fill="#DB9400"/>
<path fill-rule="evenodd" clip-rule="evenodd" d="M0.5 8C0.5 7.44772 0.947715 7 1.5 7H14.5C15.0523 7 15.5 7.44772 15.5 8C15.5 8.55228 15.0523 9 14.5 9H1.5C0.947715 9 0.5 8.55228 0.5 8Z" fill="#DB9400"/>
</svg>
