<svg xmlns="http://www.w3.org/2000/svg" width="16" height="17" viewBox="0 0 16 17" fill="none">
	<path fill-rule="evenodd" clip-rule="evenodd" d="M8.20711 1.79289C8.59763 2.18342 8.59763 2.81658 8.20711 3.20711L2.91421 8.5L8.20711 13.7929C8.59763 14.1834 8.59763 14.8166 8.20711 15.2071C7.81658 15.5976 7.18342 15.5976 6.79289 15.2071L0.792892 9.20711C0.605356 9.01957 0.499999 8.76522 0.499999 8.5C0.499999 8.23478 0.605356 7.98043 0.792892 7.79289L6.79289 1.79289C7.18342 1.40237 7.81658 1.40237 8.20711 1.79289Z" fill="white"/>
	<path fill-rule="evenodd" clip-rule="evenodd" d="M0.5 8.5C0.5 7.94772 0.947715 7.5 1.5 7.5H14.5C15.0523 7.5 15.5 7.94772 15.5 8.5C15.5 9.05228 15.0523 9.5 14.5 9.5H1.5C0.947715 9.5 0.5 9.05228 0.5 8.5Z" fill="white"/>
</svg>