<svg width="24" height="24" viewBox="0 0 24 24" fill="none" xmlns="http://www.w3.org/2000/svg">
<path d="M23.6407 14.9029C22.038 21.3315 15.5269 25.2438 9.09748 23.6407C2.67077 22.0381 -1.24157 15.5265 0.361824 9.09837C1.96381 2.66903 8.47497 -1.24361 14.9024 0.359081C21.3313 1.96177 25.2434 8.47405 23.6406 14.903L23.6407 14.9029H23.6407Z" fill="#F7931A"/>
<path fill-rule="evenodd" clip-rule="evenodd" d="M17.2925 10.2903C17.5314 8.6934 16.3156 7.83498 14.653 7.26233L15.1924 5.09914L13.8756 4.77103L13.3505 6.87726C13.0044 6.79092 12.6489 6.70957 12.2955 6.62892L12.8244 4.50878L11.5084 4.18066L10.9687 6.34315C10.6823 6.27793 10.4009 6.21347 10.1279 6.14554L10.1295 6.13874L8.31355 5.68528L7.96327 7.09171C7.96327 7.09171 8.94022 7.31565 8.91964 7.32944C9.45287 7.46252 9.5493 7.81551 9.53328 8.09529L8.91893 10.5597C8.95565 10.569 9.00328 10.5825 9.05583 10.6036L9.01756 10.5941L9.01753 10.594C8.98505 10.5859 8.9513 10.5775 8.91664 10.5692L8.05553 14.0214C7.99037 14.1834 7.82496 14.4266 7.45215 14.3342C7.46535 14.3534 6.49508 14.0954 6.49508 14.0954L5.84131 15.6027L7.55491 16.0299C7.74255 16.077 7.92798 16.1253 8.11153 16.1731L8.11155 16.1731C8.23983 16.2066 8.36719 16.2398 8.49374 16.2721L7.94884 18.4601L9.26412 18.7883L9.80374 16.6235C10.1631 16.721 10.5118 16.811 10.8531 16.8958L10.3153 19.0504L11.6322 19.3785L12.177 17.1946C14.4225 17.6196 16.1108 17.4482 16.8215 15.4172C17.3942 13.7821 16.793 12.8389 15.6117 12.2238C16.4721 12.0254 17.1202 11.4595 17.293 10.2905L17.2926 10.2902L17.2925 10.2903ZM14.284 14.5091C13.9106 16.0093 11.5623 15.3891 10.4879 15.1053C10.3913 15.0798 10.3049 15.057 10.2313 15.0387L10.9544 12.14C11.0441 12.1624 11.1538 12.187 11.2781 12.2149L11.2782 12.2149C12.3895 12.4643 14.6665 12.9753 14.284 14.5091H14.284ZM11.5011 10.8696C12.3969 11.1086 14.3509 11.6301 14.6912 10.2666H14.6914C15.0389 8.87205 13.1398 8.45161 12.2124 8.24627C12.108 8.22317 12.016 8.20279 11.9408 8.18405L11.2852 10.813C11.3471 10.8285 11.4197 10.8478 11.5011 10.8696Z" fill="white"/>
</svg>
