<svg width="30" height="31" viewBox="0 0 30 31" fill="none" xmlns="http://www.w3.org/2000/svg">
<path fill-rule="evenodd" clip-rule="evenodd" d="M0.29014 28.5492C-0.0967135 28.936 -0.0967132 29.5632 0.29014 29.9501C0.676993 30.3369 1.30421 30.3369 1.69106 29.9501L14.9998 16.6411L28.3086 29.9501C28.6955 30.3369 29.3227 30.3369 29.7095 29.9501C30.0964 29.5632 30.0964 28.936 29.7095 28.5492L16.4008 15.2402L29.7095 1.93132C30.0963 1.54446 30.0963 0.917235 29.7095 0.530377C29.3226 0.143519 28.6954 0.14352 28.3085 0.530378L14.9998 13.8393L1.69113 0.530378C1.30427 0.14352 0.677059 0.143519 0.290206 0.530377C-0.0966471 0.917235 -0.0966484 1.54446 0.290207 1.93132L13.5989 15.2402L0.29014 28.5492Z" fill="currentColor"/>
</svg>
