<svg width="13" height="12" viewBox="0 0 13 12" fill="none" xmlns="http://www.w3.org/2000/svg">
<g clip-path="url(#clip0_2728_49091)">
<path d="M7 9.99999C7.6628 9.9992 8.29822 9.73555 8.76689 9.26688C9.23556 8.79821 9.49921 8.16279 9.5 7.49999V3.12149C9.50078 2.85867 9.44938 2.59831 9.34879 2.3555C9.2482 2.11269 9.10041 1.89226 8.914 1.70699L7.793 0.585993C7.60773 0.39958 7.3873 0.251795 7.14449 0.151203C6.90168 0.0506122 6.64132 -0.000784234 6.3785 -6.564e-06H4C3.3372 0.000787364 2.70178 0.264434 2.23311 0.733103C1.76444 1.20177 1.50079 1.83719 1.5 2.49999V7.49999C1.50079 8.16279 1.76444 8.79821 2.23311 9.26688C2.70178 9.73555 3.3372 9.9992 4 9.99999H7ZM2.5 7.49999V2.49999C2.5 2.10217 2.65804 1.72064 2.93934 1.43933C3.22064 1.15803 3.60218 0.999993 4 0.999993C4 0.999993 6.4595 1.00699 6.5 1.01199V1.99999C6.5 2.26521 6.60536 2.51956 6.79289 2.7071C6.98043 2.89464 7.23479 2.99999 7.5 2.99999H8.488C8.493 3.04049 8.5 7.49999 8.5 7.49999C8.5 7.89781 8.34197 8.27935 8.06066 8.56065C7.77936 8.84195 7.39783 8.99999 7 8.99999H4C3.60218 8.99999 3.22064 8.84195 2.93934 8.56065C2.65804 8.27935 2.5 7.89781 2.5 7.49999ZM11.5 3.99999V9.49999C11.4992 10.1628 11.2356 10.7982 10.7669 11.2669C10.2982 11.7355 9.6628 11.9992 9 12H4.5C4.36739 12 4.24022 11.9473 4.14645 11.8535C4.05268 11.7598 4 11.6326 4 11.5C4 11.3674 4.05268 11.2402 4.14645 11.1464C4.24022 11.0527 4.36739 11 4.5 11H9C9.39783 11 9.77936 10.842 10.0607 10.5606C10.342 10.2793 10.5 9.89781 10.5 9.49999V3.99999C10.5 3.86738 10.5527 3.74021 10.6464 3.64644C10.7402 3.55267 10.8674 3.49999 11 3.49999C11.1326 3.49999 11.2598 3.55267 11.3536 3.64644C11.4473 3.74021 11.5 3.86738 11.5 3.99999Z" fill="currentColor"/>
</g>
<defs>
<clipPath id="clip0_2728_49091">
<rect width="12" height="12" fill="currentColor" transform="translate(0.5)"/>
</clipPath>
</defs>
</svg>
