<svg width="24" height="24" viewBox="0 0 24 24" fill="none" xmlns="http://www.w3.org/2000/svg">
<g clip-path="url(#clip0_6_4762)">
<path d="M9.83337 10.0701C9.14937 10.0701 8.60938 10.6701 8.60938 11.4021C8.60938 12.1341 9.16137 12.7341 9.83337 12.7341C10.5174 12.7341 11.0574 12.1341 11.0574 11.4021C11.0694 10.6701 10.5174 10.0701 9.83337 10.0701ZM14.2134 10.0701C13.5294 10.0701 12.9894 10.6701 12.9894 11.4021C12.9894 12.1341 13.5414 12.7341 14.2134 12.7341C14.8974 12.7341 15.4373 12.1341 15.4373 11.4021C15.4373 10.6701 14.8974 10.0701 14.2134 10.0701Z" fill="#888888"/>
<path d="M20.04 -0.000244141H3.96C2.604 -0.000244141 1.5 1.10376 1.5 2.47176V18.6958C1.5 20.0638 2.604 21.1678 3.96 21.1678H17.568L16.932 18.9478L18.468 20.3758L19.92 21.7198L22.5 23.9998V2.47176C22.5 1.10376 21.396 -0.000244141 20.04 -0.000244141ZM15.408 15.6718C15.408 15.6718 14.976 15.1558 14.616 14.6998C16.188 14.2558 16.788 13.2718 16.788 13.2718C16.296 13.5958 15.828 13.8238 15.408 13.9798C14.808 14.2318 14.232 14.3998 13.668 14.4958C12.6403 14.685 11.5863 14.6809 10.56 14.4838C9.95751 14.3659 9.36705 14.1931 8.796 13.9678C8.49499 13.852 8.2023 13.7157 7.92 13.5598C7.884 13.5358 7.848 13.5238 7.812 13.4998C7.788 13.4878 7.776 13.4758 7.764 13.4638C7.548 13.3438 7.428 13.2598 7.428 13.2598C7.428 13.2598 8.004 14.2198 9.528 14.6758C9.168 15.1318 8.724 15.6718 8.724 15.6718C6.072 15.5878 5.064 13.8478 5.064 13.8478C5.064 9.98376 6.792 6.85176 6.792 6.85176C8.52 5.55576 10.164 5.59176 10.164 5.59176L10.284 5.73576C8.124 6.35976 7.128 7.30776 7.128 7.30776C7.128 7.30776 7.392 7.16376 7.836 6.95976C9.12 6.39576 10.14 6.23976 10.56 6.20376C10.632 6.19176 10.692 6.17976 10.764 6.17976C12.8449 5.8981 14.9612 6.29361 16.8 7.30776C16.8 7.30776 15.852 6.40776 13.812 5.78376L13.98 5.59176C13.98 5.59176 15.624 5.55576 17.352 6.85176C17.352 6.85176 19.08 9.98376 19.08 13.8478C19.08 13.8478 18.06 15.5878 15.408 15.6718Z" fill="#888888"/>
</g>
<defs>
<clipPath id="clip0_6_4762">
<rect width="24" height="24" fill="white" transform="translate(0 -0.000244141)"/>
</clipPath>
</defs>
</svg>
