<svg width="49" height="48" viewBox="0 0 49 48" fill="none" xmlns="http://www.w3.org/2000/svg">
<g clip-path="url(#clip0_6_4897)">
<path d="M38.2881 35.6582L42.5301 39.9002L40.4091 42.0212L36.1671 37.7792L38.2881 35.6582Z" fill="#8A54E8"/>
<path d="M39.4238 29.9235H45.4238V32.9235H39.4238V29.9235Z" fill="#8A54E8"/>
<path d="M33.4238 38.9235V44.9235H30.4238V38.9235H33.4238Z" fill="#8A54E8"/>
<path d="M10.7104 12.3331L6.46845 8.09113L8.58945 5.97013L12.8314 10.2121L10.7104 12.3331Z" fill="#8A54E8"/>
<path d="M15.5747 9.07422V3.07422H18.5747V9.07422H15.5747Z" fill="#8A54E8"/>
<path d="M9.57471 18.0742H3.57471V15.0742H9.57471V18.0742Z" fill="#8A54E8"/>
<path d="M47.6248 5.11721C48.7915 3.95049 48.7915 2.04127 47.6248 0.874551C46.4581 -0.292168 44.5489 -0.292168 43.3822 0.874551L37.2277 7.02896L36.1671 10.2109L32.9851 11.2716L30.8638 13.3929C29.6971 14.5596 29.6971 16.4688 30.8638 17.6355C32.0305 18.8023 33.9397 18.8023 35.1065 17.6355L37.2277 15.5143L38.2884 12.3323L41.4704 11.2716L47.6248 5.11721Z" fill="#3E246B"/>
<path d="M18.136 34.6062C19.3028 33.4394 19.3028 31.5302 18.136 30.3635C16.9693 29.1968 15.0601 29.1968 13.8934 30.3635L11.7721 32.4848L10.7114 35.6668L7.52945 36.7274L1.37504 42.8819C0.20832 44.0487 0.20832 45.9579 1.37504 47.1246C2.54176 48.2913 4.45098 48.2913 5.6177 47.1246L11.7721 40.9702L12.8328 37.7882L16.0148 36.7275L18.136 34.6062Z" fill="#3E246B"/>
<path d="M37.2279 7.0289L36.1672 10.2109L32.9852 11.2716C31.8185 10.1048 29.9093 10.1048 28.7425 11.2716L24.5 15.5141L20.2573 11.2715L24.5 7.0289C28.0214 3.50736 33.7066 3.50755 37.2279 7.0289Z" fill="#F0A200"/>
<path d="M41.4706 23.9995L37.2279 28.2421L32.9854 23.9995L37.228 19.7568C38.3947 18.5901 38.3947 16.6809 37.228 15.5141L38.2887 12.3322L41.4707 11.2715C44.9919 14.7928 44.9921 20.478 41.4706 23.9995Z" fill="#F0A200"/>
<path d="M11.7718 32.4848L10.7112 35.6668L7.52919 36.7275C4.00785 33.2061 4.00785 27.5209 7.52919 23.9996L11.7718 19.757L16.0145 23.9995L11.7718 28.2422C10.6052 29.4089 10.6052 31.3181 11.7718 32.4848Z" fill="#F0A200"/>
<path d="M28.7425 36.7274L24.4998 40.97C20.9785 44.4914 15.2932 44.4914 11.772 40.97L12.8327 37.7881L16.0146 36.7274C17.1813 37.8941 19.0906 37.8941 20.2573 36.7274L24.4998 32.4848L28.7425 36.7274Z" fill="#F0A200"/>
<path d="M32.9805 11.2744L37.2225 7.03241L41.4645 11.2744L37.2225 15.5164L32.9805 11.2744Z" fill="#8A54E8"/>
<path d="M7.5249 36.7248L11.7669 32.4828L16.0089 36.7248L11.7669 40.9668L7.5249 36.7248Z" fill="#8A54E8"/>
</g>
<defs>
<clipPath id="clip0_6_4897">
<rect width="48" height="48" fill="white" transform="translate(0.5 -0.000488281)"/>
</clipPath>
</defs>
</svg>
