<svg width="33" height="32" viewBox="0 0 33 32" fill="none" xmlns="http://www.w3.org/2000/svg">
<g clip-path="url(#clip0_463_2792)">
<path d="M27.442 26.0945C26.3364 24.1341 24.4557 22.6744 22.1906 22.1863C21.4183 19.765 19.1774 17.9995 16.5 17.9995C13.8226 17.9995 11.5817 19.765 10.8094 22.1863C8.54431 22.6744 6.66356 24.134 5.558 26.0944C2.69481 26.5491 0.5 29.0084 0.5 31.9995H32.5C32.5 29.0084 30.3052 26.5491 27.442 26.0945Z" fill="#3E246B"/>
<path d="M16.5 17.9995C16.1587 17.9995 15.8249 18.0296 15.5 18.0847V21.9995C15.5 23.104 14.6046 23.9995 13.5 23.9995H12.5V25.9995H13.5C14.2323 25.9995 14.9097 25.7883 15.5 25.4447V25.9995C15.5 28.2086 17.2909 29.9995 19.5 29.9995H20.5V27.9995H19.5C18.3954 27.9995 17.5 27.104 17.5 25.9995V18.0847C17.1751 18.0296 16.8413 17.9995 16.5 17.9995Z" fill="#8A54E8"/>
<path d="M14.5 11.9995H15.5V18.0847C15.8249 18.0296 16.1587 17.9995 16.5 17.9995C16.8413 17.9995 17.1751 18.0296 17.5 18.0847V11.9995H18.5C24.0228 11.9995 28.5 7.52232 28.5 1.99951V-0.000488281H26.5C20.9772 -0.000488281 16.5 4.4767 16.5 9.99951C16.5 4.4767 12.0228 -0.000488281 6.5 -0.000488281H4.5V1.99951C4.5 7.52232 8.97719 11.9995 14.5 11.9995Z" fill="#F0A200"/>
</g>
<defs>
<clipPath id="clip0_463_2792">
<rect width="32" height="32" fill="white" transform="translate(0.5 -0.000488281)"/>
</clipPath>
</defs>
</svg>