<svg width="41" height="41" viewBox="0 0 41 41" fill="none" xmlns="http://www.w3.org/2000/svg">
<path d="M7.77273 25.9536L5.95454 28.6809L4.13636 25.9536H0.5V36.8627H4.13636L5.95454 34.1354L7.77273 36.8627H11.4091V25.9536H7.77273Z" fill="#F0A200"/>
<path d="M7.77308 22.3179V25.9542L5.9549 28.6815L4.13672 25.9542V22.3179H7.77308Z" fill="#3E246B"/>
<path d="M4.13672 36.8635L5.9549 34.1362L7.77308 36.8635V40.4999H4.13672V36.8635Z" fill="#3E246B"/>
<path d="M22.3186 18.6812L20.5004 22.3175L18.6823 18.6812H15.0459V33.2266H18.6823L20.5004 29.5902L22.3186 33.2266H25.955V18.6812H22.3186Z" fill="#F0A200"/>
<path d="M22.3182 11.4086V18.6813L20.5001 22.3177L18.6819 18.6813V11.4086H22.3182Z" fill="#3E246B"/>
<path d="M18.6819 33.2268L20.5001 29.5904L22.3182 33.2268V40.4995H18.6819V33.2268Z" fill="#3E246B"/>
<path d="M36.8635 11.4086L35.0454 15.9541L33.2272 11.4086H29.5908V29.5904H33.2272L35.0454 25.045L36.8635 29.5904H40.4999V11.4086H36.8635Z" fill="#F0A200"/>
<path d="M36.8639 0.499512V11.4086L35.0457 15.9541L33.2275 11.4086V0.499512H36.8639Z" fill="#3E246B"/>
<path d="M33.2275 29.5909L35.0457 25.0454L36.8639 29.5909V40.5H33.2275V29.5909Z" fill="#3E246B"/>
<path d="M4.13672 25.9546H7.77308V36.8637H4.13672V25.9546Z" fill="#8A54E8"/>
<path d="M18.6826 18.6812H22.319V33.2266H18.6826V18.6812Z" fill="#8A54E8"/>
<path d="M33.2275 11.4087H36.8639V29.5905H33.2275V11.4087Z" fill="#8A54E8"/>
</svg>
