<svg width="16" height="16" viewBox="0 0 16 16" fill="none" xmlns="http://www.w3.org/2000/svg">
<path d="M8 15.9998C12.4183 15.9998 16 12.418 16 7.99976C16 3.58148 12.4183 -0.000244141 8 -0.000244141C3.58172 -0.000244141 0 3.58148 0 7.99976C0 12.418 3.58172 15.9998 8 15.9998Z" fill="#627EEA"/>
<path d="M8 1.99976V6.43476L11.7485 8.10976L8 1.99976Z" fill="white"/>
<path d="M8.249 1.99976L4.5 8.10976L8.249 6.43476V1.99976Z" fill="white"/>
<path d="M8 11.1758V14.1893L11.751 8.99976L8 11.1758Z" fill="white"/>
<path d="M8.249 14.1893V11.1753L4.5 8.99976L8.249 14.1893Z" fill="white"/>
<path d="M8 10.3503L11.7485 8.17376L8 6.49976V10.3503Z" fill="white"/>
<path d="M4.5 8.17376L8.249 10.3503V6.49976L4.5 8.17376Z" fill="white"/>
</svg>
