<svg width="32" height="33" viewBox="0 0 32 33" fill="none" xmlns="http://www.w3.org/2000/svg">
<path d="M15.998 0.832764C7.164 0.832764 0 8.02476 0 16.8968C0 23.9928 4.584 30.0128 10.944 32.1388C11.744 32.2868 12.036 31.7908 12.036 31.3648C12.036 30.9828 12.022 29.9728 12.014 28.6328C7.564 29.6028 6.624 26.4788 6.624 26.4788C5.898 24.6228 4.848 24.1288 4.848 24.1288C3.394 23.1328 4.956 23.1528 4.956 23.1528C6.562 23.2668 7.406 24.8088 7.406 24.8088C8.834 27.2628 11.152 26.5548 12.064 26.1428C12.208 25.1048 12.622 24.3968 13.08 23.9948C9.528 23.5888 5.792 22.2108 5.792 16.0568C5.792 14.3028 6.416 12.8688 7.44 11.7448C7.274 11.3388 6.726 9.70476 7.596 7.49476C7.596 7.49476 8.94 7.06277 11.996 9.14077C13.272 8.78477 14.64 8.60676 16.002 8.60076C17.36 8.60876 18.73 8.78477 20.008 9.14277C23.062 7.06476 24.404 7.49676 24.404 7.49676C25.276 9.70877 24.728 11.3408 24.564 11.7468C25.59 12.8708 26.208 14.3048 26.208 16.0588C26.208 22.2288 22.468 23.5868 18.904 23.9848C19.478 24.4808 19.99 25.4608 19.99 26.9588C19.99 29.1068 19.97 30.8388 19.97 31.3648C19.97 31.7948 20.258 32.2948 21.07 32.1368C27.42 30.0088 32 23.9908 32 16.8968C32 8.02476 24.836 0.832764 15.998 0.832764Z" fill="white"/>
</svg>
