<svg width="12" height="13" viewBox="0 0 12 13" fill="none" xmlns="http://www.w3.org/2000/svg">
<path d="M4.35 8.44976C4.35 11.3011 8.85131 11.6625 6 11.6625V12.4998C9.31373 12.4998 12 9.81349 12 6.49976L4.35 8.44976ZM6 11.6625C3.14867 11.6625 6 13.1011 6 10.2498L0 6.49976C0 9.81349 2.68629 12.4998 6 12.4998V11.6625ZM6 10.2498C6 7.39843 3.14867 12.0812 6 12.0812V0.499756C2.68629 0.499756 0 3.18605 0 6.49976L6 10.2498ZM6 12.0812C8.85131 12.0812 4.35 5.59843 4.35 8.44976L12 6.49976C12 3.18605 9.31373 0.499756 6 0.499756V12.0812Z" fill="#6B6B6B"/>
<path fill-rule="evenodd" clip-rule="evenodd" d="M6.55769 3.70945C6.55769 4.0177 6.3078 4.26759 5.99955 4.26759C5.69129 4.26759 5.44141 4.0177 5.44141 3.70945C5.44141 3.40119 5.69129 3.15131 5.99955 3.15131C6.3078 3.15131 6.55769 3.40119 6.55769 3.70945ZM5.44107 4.96478C5.20988 4.96478 5.02246 5.1522 5.02246 5.38339C5.02246 5.61457 5.20988 5.80199 5.44107 5.80199H5.5806V9.29036C5.5806 9.52155 5.76802 9.70897 5.9992 9.70897C6.23039 9.70897 6.41781 9.52155 6.41781 9.29036V5.38339C6.41781 5.1522 6.23039 4.96478 5.9992 4.96478H5.44107Z" fill="#151519"/>
</svg>
