<svg width="12" height="13" viewBox="0 0 12 13" fill="none" xmlns="http://www.w3.org/2000/svg">
<path d="M5.99955 4.26754C6.3078 4.26754 6.55769 4.01762 6.55769 3.70933C6.55769 3.40104 6.3078 3.15112 5.99955 3.15112C5.69129 3.15112 5.44141 3.40104 5.44141 3.70933C5.44141 4.01762 5.69129 4.26754 5.99955 4.26754Z" fill="#6B6B6B"/>
<path d="M5.44186 4.96487C5.21068 4.96487 5.02326 5.15229 5.02326 5.38348C5.02326 5.61466 5.21068 5.80208 5.44186 5.80208V4.96487ZM6 5.38348H6.4186C6.4186 5.15229 6.23118 4.96487 6 4.96487V5.38348ZM5.5814 9.29045C5.5814 9.52164 5.76882 9.70906 6 9.70906C6.23118 9.70906 6.4186 9.52164 6.4186 9.29045H5.5814ZM11.1628 6.49976C11.1628 9.35107 8.85131 11.6625 6 11.6625V12.4998C9.31373 12.4998 12 9.81349 12 6.49976H11.1628ZM6 11.6625C3.14867 11.6625 0.837209 9.35107 0.837209 6.49976H0C0 9.81349 2.68629 12.4998 6 12.4998V11.6625ZM0.837209 6.49976C0.837209 3.64843 3.14867 1.33697 6 1.33697V0.499756C2.68629 0.499756 0 3.18605 0 6.49976H0.837209ZM6 1.33697C8.85131 1.33697 11.1628 3.64843 11.1628 6.49976H12C12 3.18605 9.31373 0.499756 6 0.499756V1.33697ZM5.44186 5.80208H6V4.96487H5.44186V5.80208ZM5.5814 5.38348V9.29045H6.4186V5.38348H5.5814Z" fill="#6B6B6B"/>
</svg>
