<svg width="49" height="48" viewBox="0 0 49 48" fill="none" xmlns="http://www.w3.org/2000/svg">
<g clip-path="url(#clip0_6_4897)">
<path d="M38.2881 35.6584L42.5301 39.9004L40.4091 42.0214L36.1671 37.7794L38.2881 35.6584Z" fill="#8A54E8"/>
<path d="M39.4241 29.9238H45.4241V32.9238H39.4241V29.9238Z" fill="#8A54E8"/>
<path d="M33.4241 38.9238V44.9238H30.4241V38.9238H33.4241Z" fill="#8A54E8"/>
<path d="M10.7104 12.3335L6.46845 8.0915L8.58945 5.9705L12.8314 10.2125L10.7104 12.3335Z" fill="#8A54E8"/>
<path d="M15.5747 9.07446V3.07446H18.5747V9.07446H15.5747Z" fill="#8A54E8"/>
<path d="M9.57471 18.0745H3.57471V15.0745H9.57471V18.0745Z" fill="#8A54E8"/>
<path d="M47.6251 5.11745C48.7918 3.95073 48.7918 2.04151 47.6251 0.874795C46.4583 -0.291924 44.5491 -0.291924 43.3824 0.874795L37.228 7.0292L36.1673 10.2112L32.9853 11.2719L30.8641 13.3931C29.6973 14.5599 29.6973 16.4691 30.8641 17.6358C32.0308 18.8025 33.94 18.8025 35.1067 17.6358L37.228 15.5145L38.2887 12.3325L41.4706 11.2719L47.6251 5.11745Z" fill="#3E246B"/>
<path d="M18.136 34.6065C19.3028 33.4397 19.3028 31.5305 18.136 30.3638C16.9693 29.1971 15.0601 29.1971 13.8934 30.3638L11.7721 32.4851L10.7114 35.6671L7.52945 36.7277L1.37504 42.8822C0.20832 44.049 0.20832 45.9582 1.37504 47.1249C2.54176 48.2916 4.45098 48.2916 5.6177 47.1249L11.7721 40.9705L12.8328 37.7885L16.0148 36.7278L18.136 34.6065Z" fill="#3E246B"/>
<path d="M37.2279 7.02926L36.1672 10.2112L32.9852 11.2719C31.8185 10.1052 29.9093 10.1052 28.7425 11.2719L24.5 15.5145L20.2573 11.2718L24.5 7.02926C28.0214 3.50773 33.7066 3.50792 37.2279 7.02926Z" fill="#F0A200"/>
<path d="M41.4706 23.9997L37.2279 28.2424L32.9854 23.9997L37.228 19.757C38.3947 18.5903 38.3947 16.6811 37.228 15.5144L38.2887 12.3324L41.4707 11.2717C44.9919 14.7931 44.9921 20.4783 41.4706 23.9997Z" fill="#F0A200"/>
<path d="M11.7718 32.4852L10.7112 35.6672L7.52919 36.7279C4.00785 33.2065 4.00785 27.5212 7.52919 24L11.7718 19.7573L16.0145 23.9999L11.7718 28.2425C10.6052 29.4093 10.6052 31.3185 11.7718 32.4852Z" fill="#F0A200"/>
<path d="M28.7427 36.7277L24.5001 40.9703C20.9787 44.4917 15.2935 44.4917 11.7722 40.9703L12.8329 37.7884L16.0149 36.7277C17.1816 37.8944 19.0908 37.8944 20.2575 36.7277L24.5001 32.4851L28.7427 36.7277Z" fill="#F0A200"/>
<path d="M32.9807 11.2747L37.2227 7.03266L41.4647 11.2747L37.2227 15.5167L32.9807 11.2747Z" fill="#8A54E8"/>
<path d="M7.5249 36.7251L11.7669 32.4831L16.0089 36.7251L11.7669 40.9671L7.5249 36.7251Z" fill="#8A54E8"/>
</g>
<defs>
<clipPath id="clip0_6_4897">
<rect width="48" height="48" fill="white" transform="translate(0.5 -0.000244141)"/>
</clipPath>
</defs>
</svg>
