<svg xmlns="http://www.w3.org/2000/svg" width="20" height="21" viewBox="0 0 20 21" fill="none">
	<g clip-path="url(#clip0_101_3139)">
	<path d="M13.6608 1.92857V2.64286C13.6608 2.8323 13.7361 3.01398 13.87 3.14793C14.004 3.28189 14.1857 3.35714 14.3751 3.35714C14.5645 3.35714 14.7462 3.28189 14.8802 3.14793C15.0141 3.01398 15.0894 2.8323 15.0894 2.64286V1.21429C15.0894 1.02485 15.0141 0.843164 14.8802 0.709209C14.7462 0.575255 14.5645 0.5 14.3751 0.5H13.6608C13.4714 0.5 13.2897 0.575255 13.1557 0.709209C13.0218 0.843164 12.9465 1.02485 12.9465 1.21429C12.9465 1.40373 13.0218 1.58541 13.1557 1.71936C13.2897 1.85332 13.4714 1.92857 13.6608 1.92857ZM6.51798 1.92857C6.70742 1.92857 6.8891 1.85332 7.02306 1.71936C7.15701 1.58541 7.23227 1.40373 7.23227 1.21429C7.23227 1.02485 7.15701 0.843164 7.02306 0.709209C6.8891 0.575255 6.70742 0.5 6.51798 0.5H5.08942C4.89998 0.5 4.71829 0.575255 4.58434 0.709209C4.45039 0.843164 4.37513 1.02485 4.37513 1.21429C4.37513 1.40373 4.45039 1.58541 4.58434 1.71936C4.71829 1.85332 4.89998 1.92857 5.08942 1.92857H6.51798ZM9.37512 1.92857H10.8037C10.9931 1.92857 11.1748 1.85332 11.3088 1.71936C11.4427 1.58541 11.518 1.40373 11.518 1.21429C11.518 1.02485 11.4427 0.843164 11.3088 0.709209C11.1748 0.575255 10.9931 0.5 10.8037 0.5H9.37512C9.18568 0.5 9.004 0.575255 8.87005 0.709209C8.73609 0.843164 8.66084 1.02485 8.66084 1.21429C8.66084 1.40373 8.73609 1.58541 8.87005 1.71936C9.004 1.85332 9.18568 1.92857 9.37512 1.92857ZM1.518 3.35714C1.70744 3.35714 1.88912 3.28189 2.02307 3.14793C2.15702 3.01398 2.23228 2.8323 2.23228 2.64286V1.92857C2.42172 1.92857 2.6034 1.85332 2.73735 1.71936C2.87131 1.58541 2.94656 1.40373 2.94656 1.21429C2.94656 1.02485 2.87131 0.843164 2.73735 0.709209C2.6034 0.575255 2.42172 0.5 2.23228 0.5H1.518C1.32856 0.5 1.14687 0.575255 1.01292 0.709209C0.878966 0.843164 0.803711 1.02485 0.803711 1.21429V2.64286C0.803711 2.8323 0.878966 3.01398 1.01292 3.14793C1.14687 3.28189 1.32856 3.35714 1.518 3.35714ZM1.518 7.64286C1.70744 7.64286 1.88912 7.5676 2.02307 7.43365C2.15702 7.29969 2.23228 7.11801 2.23228 6.92857V5.5C2.23228 5.31056 2.15702 5.12888 2.02307 4.99492C1.88912 4.86097 1.70744 4.78571 1.518 4.78571C1.32856 4.78571 1.14687 4.86097 1.01292 4.99492C0.878966 5.12888 0.803711 5.31056 0.803711 5.5V6.92857C0.803711 7.11801 0.878966 7.29969 1.01292 7.43365C1.14687 7.5676 1.32856 7.64286 1.518 7.64286ZM1.518 11.9286C1.70744 11.9286 1.88912 11.8533 2.02307 11.7194C2.15702 11.5854 2.23228 11.4037 2.23228 11.2143V9.78571C2.23228 9.59627 2.15702 9.41459 2.02307 9.28064C1.88912 9.14668 1.70744 9.07143 1.518 9.07143C1.32856 9.07143 1.14687 9.14668 1.01292 9.28064C0.878966 9.41459 0.803711 9.59627 0.803711 9.78571V11.2143C0.803711 11.4037 0.878966 11.5854 1.01292 11.7194C1.14687 11.8533 1.32856 11.9286 1.518 11.9286ZM2.94656 14.7857H2.23228V14.0714C2.23228 13.882 2.15702 13.7003 2.02307 13.5664C1.88912 13.4324 1.70744 13.3571 1.518 13.3571C1.32856 13.3571 1.14687 13.4324 1.01292 13.5664C0.878966 13.7003 0.803711 13.882 0.803711 14.0714V15.5C0.803711 15.6894 0.878966 15.8711 1.01292 16.0051C1.14687 16.139 1.32856 16.2143 1.518 16.2143H2.94656C3.136 16.2143 3.31768 16.139 3.45164 16.0051C3.58559 15.8711 3.66085 15.6894 3.66085 15.5C3.66085 15.3106 3.58559 15.1289 3.45164 14.9949C3.31768 14.861 3.136 14.7857 2.94656 14.7857ZM17.7372 9.28071L13.4515 4.995C13.3908 4.92158 13.313 4.86413 13.225 4.82766C13.137 4.79118 13.0414 4.77678 12.9465 4.78571H5.8037C5.61426 4.78571 5.43258 4.86097 5.29862 4.99492C5.16467 5.12888 5.08942 5.31056 5.08942 5.5V19.7857C5.08942 19.9752 5.16467 20.1568 5.29862 20.2908C5.43258 20.4247 5.61426 20.5 5.8037 20.5H17.2322C17.4217 20.5 17.6034 20.4247 17.7373 20.2908C17.8713 20.1568 17.9465 19.9752 17.9465 19.7857V9.78571C17.9475 9.69178 17.9295 9.59861 17.8935 9.51182C17.8575 9.42504 17.8044 9.34642 17.7372 9.28071ZM13.6608 7.22429L15.508 9.07143H13.6608V7.22429ZM6.51798 19.0714V6.21429H12.2323V9.78571C12.2323 9.97515 12.3075 10.1568 12.4415 10.2908C12.5754 10.4247 12.7571 10.5 12.9465 10.5H16.518V19.0714H6.51798Z" fill="#DB9400"/>
	</g>
	<defs>
	<clipPath id="clip0_101_3139">
	<rect width="20" height="20" fill="white" transform="translate(0 0.5)"/>
	</clipPath>
	</defs>
	</svg>