<svg width="24" height="24" viewBox="0 0 24 24" fill="none" xmlns="http://www.w3.org/2000/svg">
<g clip-path="url(#clip0_6_4769)">
<path d="M23.9997 12.9682C23.9979 12.4494 23.8448 11.9425 23.5593 11.5105C23.2739 11.0785 22.8687 10.7405 22.394 10.5384C21.9194 10.3363 21.3963 10.279 20.8896 10.3736C20.3829 10.4682 19.915 10.7106 19.544 11.0707C17.7455 9.76412 15.2686 8.92108 12.509 8.82349L13.7071 3.14721L17.6244 3.98483C17.6455 4.44638 17.8333 4.8843 18.1523 5.21643C18.4713 5.54855 18.8997 5.75207 19.3572 5.78879C19.8146 5.82551 20.2697 5.69292 20.637 5.41588C21.0042 5.13885 21.2585 4.73641 21.352 4.28406C21.4456 3.83172 21.372 3.36055 21.145 2.95895C20.9181 2.55735 20.5534 2.25291 20.1194 2.10276C19.6854 1.9526 19.212 1.96703 18.7878 2.14336C18.3636 2.31968 18.0179 2.64578 17.8155 3.06047L13.4486 2.12526C13.3885 2.11211 13.3263 2.11108 13.2658 2.12225C13.2053 2.13342 13.1475 2.15655 13.0959 2.19032C12.9914 2.25874 12.9179 2.36588 12.8913 2.4885L11.5451 8.82349C8.75323 8.90211 6.23055 9.73701 4.41593 11.0707C4.13772 10.8105 3.80681 10.6142 3.44599 10.4951C3.08517 10.376 2.70301 10.3371 2.32582 10.3811C1.94863 10.425 1.58538 10.5507 1.26107 10.7495C0.936759 10.9483 0.659099 11.2156 0.447207 11.5328C0.235316 11.85 0.0942261 12.2097 0.0336525 12.5872C-0.0269211 12.9646 -0.00553989 13.3507 0.0963251 13.719C0.19819 14.0873 0.378119 14.429 0.623721 14.7205C0.869324 15.0121 1.17477 15.2466 1.51902 15.4079C1.47747 15.6769 1.45676 15.9488 1.45709 16.2211C1.45709 20.2872 6.16862 23.5997 11.9786 23.5997C17.7886 23.5997 22.5028 20.2953 22.5028 16.2211C22.5025 15.9542 22.4818 15.6878 22.4409 15.4241C22.9108 15.2132 23.309 14.868 23.586 14.4315C23.8631 13.995 24.007 13.4862 23.9997 12.9682ZM5.96132 14.8657C5.96132 14.4904 6.07185 14.1236 6.27893 13.8115C6.48601 13.4995 6.78035 13.2563 7.12472 13.1127C7.46908 12.969 7.84802 12.9315 8.2136 13.0047C8.57917 13.0779 8.91498 13.2586 9.17855 13.524C9.44212 13.7894 9.62161 14.1275 9.69433 14.4955C9.76704 14.8636 9.72972 15.2452 9.58708 15.5919C9.44444 15.9386 9.20288 16.235 8.89296 16.4435C8.58304 16.652 8.21867 16.7632 7.84593 16.7632C7.3461 16.7632 6.86674 16.5633 6.51331 16.2075C6.15987 15.8516 5.96132 15.369 5.96132 14.8657ZM16.4613 19.8616C15.1771 21.1492 12.7217 21.2495 11.9975 21.2495C11.2732 21.2495 8.81785 21.1492 7.53631 19.8616C7.49106 19.8161 7.45516 19.762 7.43067 19.7024C7.40617 19.6429 7.39357 19.5791 7.39357 19.5146C7.39357 19.4502 7.40617 19.3864 7.43067 19.3269C7.45516 19.2673 7.49106 19.2132 7.53631 19.1677C7.58157 19.1221 7.63529 19.086 7.69442 19.0613C7.75355 19.0366 7.81693 19.024 7.88093 19.024C7.94493 19.024 8.0083 19.0366 8.06743 19.0613C8.12656 19.086 8.18029 19.1221 8.22554 19.1677C9.03323 19.9809 10.7617 20.2709 11.9948 20.2709C13.2278 20.2709 14.9563 19.9809 15.764 19.1677C15.8554 19.0746 15.9798 19.0218 16.1098 19.0211C16.2398 19.0203 16.3648 19.0716 16.4573 19.1636C16.5497 19.2556 16.6021 19.3809 16.6029 19.5118C16.6036 19.6427 16.5527 19.7685 16.4613 19.8616ZM16.1167 16.7632C15.7439 16.7632 15.3796 16.652 15.0696 16.4435C14.7597 16.235 14.5182 15.9386 14.3755 15.5919C14.2329 15.2452 14.1956 14.8636 14.2683 14.4955C14.341 14.1275 14.5205 13.7894 14.7841 13.524C15.0476 13.2586 15.3834 13.0779 15.749 13.0047C16.1146 12.9315 16.4935 12.969 16.8379 13.1127C17.1823 13.2563 17.4766 13.4995 17.6837 13.8115C17.8908 14.1236 18.0013 14.4904 18.0013 14.8657C18.0013 15.369 17.8027 15.8516 17.4493 16.2075C17.0959 16.5633 16.6165 16.7632 16.1167 16.7632Z" fill="#888888"/>
</g>
<defs>
<clipPath id="clip0_6_4769">
<rect width="24" height="24" fill="white" transform="translate(0 -0.000244141)"/>
</clipPath>
</defs>
</svg>
