<svg width="15" height="15" viewBox="0 0 15 15" fill="none" xmlns="http://www.w3.org/2000/svg">
<g opacity="0.5">
<path d="M9.8436 5.95296L6.97734 3.08671C6.80147 2.91092 6.56297 2.8122 6.31431 2.81226C6.06565 2.81231 5.8272 2.91115 5.65141 3.08702C5.47562 3.26289 5.37689 3.50139 5.37695 3.75006C5.37701 3.99872 5.47585 4.23717 5.65172 4.41296L8.51797 7.27858C8.54707 7.30761 8.57016 7.3421 8.58592 7.38006C8.60167 7.41803 8.60978 7.45873 8.60978 7.49984C8.60978 7.54094 8.60167 7.58164 8.58592 7.61961C8.57016 7.65757 8.54707 7.69206 8.51797 7.72109L5.65172 10.5867C5.47585 10.7625 5.37701 11.001 5.37695 11.2496C5.37689 11.4983 5.47562 11.7368 5.65141 11.9126C5.8272 12.0885 6.06565 12.1874 6.31431 12.1874C6.56297 12.1875 6.80147 12.0887 6.97734 11.913L9.8436 9.04671C10.2531 8.63606 10.4831 8.07978 10.4831 7.49984C10.4831 6.91989 10.2531 6.36361 9.8436 5.95296Z" fill="white"/>
</g>
</svg>
