<svg width="33" height="32" viewBox="0 0 33 32" fill="none" xmlns="http://www.w3.org/2000/svg">
<circle cx="16.4" cy="16" r="16" fill="black"/>
<path d="M25.6364 20.7852L22.5552 24.0695C22.4882 24.1409 22.4072 24.1977 22.3171 24.2366C22.2271 24.2755 22.1299 24.2955 22.0317 24.2955H7.42524C7.35555 24.2955 7.28737 24.2752 7.22909 24.2372C7.17081 24.1993 7.12496 24.1452 7.09718 24.0816C7.0694 24.0181 7.0609 23.9479 7.07272 23.8796C7.08454 23.8114 7.11616 23.748 7.16371 23.6974L10.2472 20.4131C10.3141 20.342 10.3948 20.2852 10.4846 20.2463C10.5744 20.2075 10.6712 20.1873 10.7691 20.1872H25.3748C25.4445 20.1872 25.5127 20.2074 25.571 20.2454C25.6293 20.2834 25.6751 20.3375 25.7029 20.401C25.7307 20.4645 25.7392 20.5347 25.7274 20.603C25.7155 20.6713 25.6839 20.7346 25.6364 20.7852ZM22.5552 14.1717C22.4882 14.1004 22.4072 14.0435 22.3171 14.0046C22.2271 13.9658 22.1299 13.9457 22.0317 13.9458H7.42524C7.35555 13.9458 7.28737 13.966 7.22909 14.004C7.17081 14.042 7.12496 14.096 7.09718 14.1596C7.0694 14.2231 7.0609 14.2933 7.07272 14.3616C7.08454 14.4298 7.11616 14.4932 7.16371 14.5438L10.2472 17.8281C10.3141 17.8992 10.3948 17.956 10.4846 17.9949C10.5744 18.0337 10.6712 18.0539 10.7691 18.054H25.3748C25.4445 18.054 25.5127 18.0338 25.571 17.9958C25.6293 17.9578 25.6751 17.9038 25.7029 17.8402C25.7307 17.7767 25.7392 17.7065 25.7274 17.6382C25.7155 17.57 25.6839 17.5066 25.6364 17.456L22.5552 14.1717ZM7.42524 11.8126H22.0317C22.1299 11.8127 22.2271 11.7926 22.3171 11.7538C22.4072 11.7149 22.4882 11.658 22.5552 11.5867L25.6364 8.30242C25.6839 8.25177 25.7155 8.18843 25.7274 8.12016C25.7392 8.0519 25.7307 7.98169 25.7029 7.91816C25.6751 7.85463 25.6293 7.80055 25.571 7.76257C25.5127 7.72458 25.4445 7.70435 25.3748 7.70435H10.7691C10.6712 7.70451 10.5744 7.72465 10.4846 7.76352C10.3948 7.80238 10.3141 7.85915 10.2472 7.9303L7.16451 11.2146C7.117 11.2651 7.08539 11.3284 7.07354 11.3966C7.0617 11.4648 7.07013 11.5349 7.09782 11.5984C7.1255 11.6619 7.17122 11.716 7.22939 11.7541C7.28755 11.7921 7.35562 11.8125 7.42524 11.8126Z" fill="url(#paint0_linear_12353_16029)"/>
<defs>
<linearGradient id="paint0_linear_12353_16029" x1="8.64308" y1="24.6909" x2="23.8551" y2="7.43674" gradientUnits="userSpaceOnUse">
<stop offset="0.08" stop-color="#9945FF"/>
<stop offset="0.3" stop-color="#8752F3"/>
<stop offset="0.5" stop-color="#5497D5"/>
<stop offset="0.6" stop-color="#43B4CA"/>
<stop offset="0.72" stop-color="#28E0B9"/>
<stop offset="0.97" stop-color="#19FB9B"/>
</linearGradient>
</defs>
</svg>
