<svg width="24" height="24" viewBox="0 0 24 24" fill="none" xmlns="http://www.w3.org/2000/svg">
<path d="M1.80008 11.9964C1.79947 14.2239 2.52861 16.3902 3.87595 18.164C4.07464 18.414 4.04075 18.7761 3.79918 18.9848L3.3432 19.376C3.09038 19.5942 2.70851 19.5662 2.49022 19.3134C2.48483 19.3071 2.47958 19.3008 2.47443 19.2944C-0.82481 14.9883 -0.82481 9.00442 2.47443 4.69846C2.68095 4.43766 3.05981 4.39365 3.32061 4.60017C3.32745 4.60561 3.33416 4.61114 3.34077 4.61685L3.79913 5.00805C4.03921 5.21654 4.07305 5.57689 3.87591 5.82639C2.52893 7.60129 1.79987 9.76827 1.80008 11.9964ZM21.4765 19.3568C21.268 19.6177 20.8874 19.6601 20.6265 19.4516C20.6201 19.4465 20.6139 19.4413 20.6078 19.436L20.159 19.0376C19.9197 18.8269 19.889 18.465 20.0894 18.2169C22.9117 14.5493 22.9117 9.44131 20.0894 5.77366C19.889 5.52561 19.9196 5.16366 20.159 4.95293L20.6078 4.55695C20.859 4.33679 21.2411 4.36196 21.4612 4.61315C21.4664 4.6191 21.4715 4.6252 21.4765 4.63134C24.8412 8.96233 24.8412 15.0235 21.4765 19.3544V19.3568Z" fill="#17D384"/>
<path d="M10.7408 14.4301C10.6379 14.5398 10.5336 14.6481 10.4355 14.75L8.49805 12.6862C8.59367 12.5817 8.69541 12.4706 8.79836 12.3609C8.9013 12.2513 9.00557 12.1429 9.10372 12.041L11.0411 14.1048C10.9455 14.2094 10.8438 14.3204 10.7408 14.4301Z" fill="#17D384"/>
<path d="M14.6993 9.56829C14.8022 9.67795 14.9032 9.78982 14.998 9.89519L10.442 14.7484C10.3431 14.6473 10.2381 14.5398 10.1352 14.4301C10.0322 14.3204 9.93122 14.2086 9.83636 14.1032L14.3924 9.25C14.4913 9.35106 14.5963 9.45863 14.6993 9.56829Z" fill="#17D384"/>
<path fill-rule="evenodd" clip-rule="evenodd" d="M17.9289 12.0266C17.9289 15.3403 15.2426 18.0266 11.9289 18.0266C8.6152 18.0266 5.92891 15.3403 5.92891 12.0266C5.92891 8.71285 8.6152 6.02656 11.9289 6.02656C15.2426 6.02656 17.9289 8.71285 17.9289 12.0266ZM18.7289 12.0266C18.7289 15.7821 15.6844 18.8266 11.9289 18.8266C8.17337 18.8266 5.12891 15.7821 5.12891 12.0266C5.12891 8.27103 8.17337 5.22656 11.9289 5.22656C15.6844 5.22656 18.7289 8.27103 18.7289 12.0266Z" fill="#17D384"/>
</svg>
