<svg width="24" height="24" viewBox="0 0 24 24" fill="none" xmlns="http://www.w3.org/2000/svg">
<g clip-path="url(#clip0_2753_49330)">
<path d="M1.80106 11.9964C1.80045 14.2239 2.52959 16.3902 3.87693 18.164C4.07562 18.414 4.04173 18.7761 3.80015 18.9848L3.34418 19.376C3.09135 19.5942 2.70948 19.5662 2.4912 19.3134C2.48581 19.3071 2.48056 19.3008 2.4754 19.2944C-0.823833 14.9883 -0.823833 9.00442 2.4754 4.69846C2.68192 4.43766 3.06079 4.39365 3.32159 4.60017C3.32843 4.60561 3.33513 4.61114 3.34174 4.61685L3.80011 5.00805C4.04019 5.21654 4.07403 5.57689 3.87688 5.82639C2.5299 7.60129 1.80085 9.76827 1.80106 11.9964ZM21.4775 19.3568C21.2689 19.6177 20.8884 19.6601 20.6275 19.4516C20.6211 19.4465 20.6149 19.4413 20.6087 19.436L20.16 19.0376C19.9207 18.8269 19.89 18.465 20.0904 18.2169C22.9127 14.5493 22.9127 9.44131 20.0904 5.77366C19.89 5.52561 19.9206 5.16366 20.16 4.95293L20.6087 4.55695C20.8599 4.33679 21.242 4.36196 21.4621 4.61315C21.4674 4.6191 21.4725 4.6252 21.4775 4.63134C24.8421 8.96233 24.8421 15.0235 21.4775 19.3544V19.3568Z" fill="#F01D0F"/>
<path fill-rule="evenodd" clip-rule="evenodd" d="M17.9299 12.0266C17.9299 15.3403 15.2436 18.0266 11.9299 18.0266C8.61617 18.0266 5.92988 15.3403 5.92988 12.0266C5.92988 8.71285 8.61617 6.02656 11.9299 6.02656C15.2436 6.02656 17.9299 8.71285 17.9299 12.0266ZM18.7299 12.0266C18.7299 15.7821 15.6854 18.8266 11.9299 18.8266C8.17435 18.8266 5.12988 15.7821 5.12988 12.0266C5.12988 8.27103 8.17435 5.22656 11.9299 5.22656C15.6854 5.22656 18.7299 8.27103 18.7299 12.0266Z" fill="#F01D0F"/>
<path d="M9.20961 15L11.5306 11.997L9.25911 9.06H10.2271L12.0036 11.3755L13.7636 9.06H14.7316L12.4601 11.997L14.7866 15H13.8131L12.0036 12.6185L10.1831 15H9.20961Z" fill="#F01D0F"/>
</g>
<defs>
<clipPath id="clip0_2753_49330">
<rect width="24" height="24" fill="white" transform="matrix(1 0 0 -1 0 24)"/>
</clipPath>
</defs>
</svg>
