<svg width="120" height="120" viewBox="0 0 120 120" fill="none" xmlns="http://www.w3.org/2000/svg">
<circle cx="60" cy="60" r="60" fill="white"/>
<path fill-rule="evenodd" clip-rule="evenodd" d="M110.58 59.5755C110.58 87.7441 87.7451 110.58 59.5758 110.58C31.4064 110.58 8.57153 87.7441 8.57153 59.5755C8.57153 31.407 31.4064 8.57129 59.5758 8.57129C69.217 8.57129 78.1845 11.1655 85.8248 15.7321C92.6175 19.7924 98.362 25.4129 102.599 32.1574C103.559 33.6844 103.591 35.6181 102.673 37.1704L82.6674 70.9815V39.4201H63.911L45.6704 70.9815V39.4201H27.0325V86.2124H36.7733C42.3534 86.2124 47.5078 83.2248 50.2805 78.3833L63.911 54.5878V86.2124H73.6976C79.2493 86.2124 84.3808 83.2556 87.1653 78.452L106.123 45.7452C106.769 44.6306 108.438 44.847 108.779 46.0896C109.959 50.3853 110.58 54.8841 110.58 59.5747V59.5755Z" fill="black"/>
</svg>
