<?xml version="1.0" standalone="no"?>
<!DOCTYPE svg PUBLIC "-//W3C//DTD SVG 20010904//EN"
 "http://www.w3.org/TR/2001/REC-SVG-20010904/DTD/svg10.dtd">
<svg version="1.0" xmlns="http://www.w3.org/2000/svg"
 width="700.000000pt" height="700.000000pt" viewBox="0 0 700.000000 700.000000"
 preserveAspectRatio="xMidYMid meet">
<metadata>
Created by potrace 1.14, written by Peter Selinger 2001-2017
</metadata>
<g transform="translate(0.000000,700.000000) scale(0.100000,-0.100000)"
fill="#000000" stroke="none">
<path d="M3280 6994 c-19 -2 -84 -9 -145 -14 -639 -62 -1264 -315 -1795 -726
-149 -115 -481 -446 -595 -594 -410 -532 -653 -1132 -727 -1795 -17 -155 -17
-575 0 -730 75 -673 332 -1300 748 -1820 114 -143 339 -372 484 -494 537 -451
1163 -717 1885 -803 142 -17 586 -17 730 0 682 79 1268 318 1802 734 138 107
389 351 512 498 451 538 717 1162 803 1885 16 139 16 595 0 730 -77 629 -275
1158 -620 1649 -234 333 -577 668 -917 896 -460 308 -968 495 -1535 566 -117
15 -552 27 -630 18z m-925 -1994 c133 -13 235 -33 334 -66 437 -146 728 -489
820 -968 22 -113 20 -133 -13 -141 -11 -3 -142 -4 -291 -3 l-269 3 -12 25 c-6
14 -24 65 -39 113 -29 90 -89 194 -148 255 -128 134 -361 213 -582 198 -289
-20 -503 -164 -619 -418 -68 -148 -96 -297 -96 -513 0 -332 78 -563 245 -730
136 -136 274 -194 486 -202 162 -7 260 11 384 72 162 79 275 209 330 382 15
48 33 99 39 113 l12 25 269 3 c149 1 280 0 291 -3 33 -8 35 -28 14 -138 -105
-545 -452 -906 -978 -1017 -141 -30 -393 -38 -538 -16 -420 62 -748 285 -957
651 -84 147 -151 343 -189 555 -18 102 -18 508 0 610 36 197 82 343 158 494
252 502 760 771 1349 716z m2925 -11 c543 -59 848 -337 852 -774 1 -130 -13
-208 -52 -290 -69 -145 -204 -230 -462 -290 l-118 -28 0 -83 0 -82 73 -12
c114 -18 254 -58 324 -91 129 -62 225 -190 258 -344 19 -92 19 -276 -1 -373
-8 -44 -35 -117 -60 -170 -117 -242 -361 -398 -737 -469 -130 -25 -552 -25
-682 -1 -454 86 -724 299 -848 670 -52 154 -86 429 -57 463 11 13 53 15 295
15 214 0 285 -3 292 -12 6 -7 13 -52 17 -100 17 -219 81 -337 219 -402 103
-49 149 -57 367 -63 295 -8 440 26 529 122 114 124 88 395 -47 489 -79 54
-109 60 -362 64 -142 2 -240 8 -247 14 -18 15 -19 548 -1 566 9 9 70 12 215
12 257 0 326 14 396 79 51 47 70 97 75 198 4 82 2 97 -21 146 -46 101 -145
148 -353 168 -129 12 -304 0 -395 -27 -131 -39 -232 -119 -283 -227 -27 -58
-56 -185 -56 -246 0 -72 3 -71 -309 -71 -202 0 -280 3 -289 12 -17 17 -15 127
3 231 73 420 327 718 725 850 208 69 451 87 740 56z"/>
</g>
</svg>
